<?xml version="1.0" standalone="no"?>
<!DOCTYPE svg PUBLIC "-//W3C//DTD SVG 20010904//EN"
 "http://www.w3.org/TR/2001/REC-SVG-20010904/DTD/svg10.dtd">
<svg version="1.0" xmlns="http://www.w3.org/2000/svg"
 width="220.000000pt" height="220.000000pt" viewBox="0 0 220.000000 220.000000"
 preserveAspectRatio="xMidYMid meet">
<metadata>
Created by potrace 1.14, written by Peter Selinger 2001-2017
</metadata>
<g transform="translate(0.000000,220.000000) scale(0.100000,-0.100000)"
fill="#000000" stroke="none">
<path d="M1098 2124 c-3 -5 -56 -164 -117 -354 -62 -190 -120 -364 -128 -387
l-16 -43 -414 -2 -414 -3 336 -244 c185 -134 334 -249 332 -255 -2 -6 -16 -49
-31 -96 -15 -47 -30 -92 -33 -100 -4 -8 -7 -17 -7 -20 -4 -16 -141 -436 -161
-492 -13 -38 -21 -68 -17 -68 4 0 156 108 337 240 182 132 336 238 343 235 7
-2 61 -40 120 -83 59 -43 193 -141 297 -216 105 -75 201 -146 215 -157 47 -37
53 -61 -85 361 -36 113 -70 214 -75 225 -4 11 -16 47 -25 80 -10 33 -21 70
-26 81 -6 18 2 28 59 70 37 27 72 52 77 56 24 20 155 115 332 243 106 76 191
140 190 142 -2 1 -189 3 -415 4 l-412 0 -96 297 c-53 163 -111 342 -128 396
-18 55 -35 96 -38 90z"/>
</g>
</svg>
